<svg id="LandBridge_Main_Green" data-name="LandBridge Main Green" xmlns="http://www.w3.org/2000/svg" viewBox="0 0 563.3 147"><defs><style>.cls-1{fill:#27384b;}.cls-2{fill:#8cc63f;}.cls-3{fill:#c1d72e;}.cls-4{fill:#00a669;}</style></defs><title>LandBridge-logo</title><g id="Logo_Main_Green" data-name="Logo Main Green"><g id="Font"><path id="LandBridge" class="cls-1" d="M177,93.6h23.5V84.5H186.6V43.3H177Zm58.6-33.1a17.2,17.2,0,0,0-5.4-3.8,15.7,15.7,0,0,0-6.3-1.3,16.2,16.2,0,0,0-12.4,5.5q-5.1,5.5-5.1,14.1A19.5,19.5,0,0,0,211.7,89a16.6,16.6,0,0,0,12.5,5.6,15.3,15.3,0,0,0,6-1.1,18.3,18.3,0,0,0,5.5-3.7v3.9h9.3V56.4h-9.3v4.1Zm-2.5,6.6a10.9,10.9,0,0,1,2.9,7.9,11.2,11.2,0,0,1-2.9,8,9.6,9.6,0,0,1-7.3,3.1,9.4,9.4,0,0,1-7.2-3.1,11.1,11.1,0,0,1-2.9-7.9,11,11,0,0,1,2.9-7.8,9.4,9.4,0,0,1,7.2-3.1,9.7,9.7,0,0,1,7.3,3Zm22.6,26.5h9.3V78.7a42.4,42.4,0,0,1,.4-7.5,10.1,10.1,0,0,1,2.8-5.2,6.9,6.9,0,0,1,4.9-1.9,5.8,5.8,0,0,1,3.7,1.1,6.1,6.1,0,0,1,2.1,3.3,41.2,41.2,0,0,1,.6,8.8V93.6h9.2V69q0-6.4-3.2-9.7a12.8,12.8,0,0,0-9.4-3.9,13.9,13.9,0,0,0-5.3,1,22.4,22.4,0,0,0-5.8,3.7V56.4h-9.3Zm70.9-33.1a17.1,17.1,0,0,0-5.4-3.8,15.7,15.7,0,0,0-6.3-1.3,16.2,16.2,0,0,0-12.4,5.5q-5.1,5.5-5.1,14.1A19.5,19.5,0,0,0,302.7,89a16.6,16.6,0,0,0,12.5,5.6,15.3,15.3,0,0,0,6-1.1,18.3,18.3,0,0,0,5.5-3.7v3.9H336V42.1h-9.3Zm-2.5,6.6a10.9,10.9,0,0,1,2.9,7.9,11.2,11.2,0,0,1-2.9,8,9.6,9.6,0,0,1-7.3,3.1,9.4,9.4,0,0,1-7.2-3.1,11.1,11.1,0,0,1-2.9-7.9,11,11,0,0,1,2.9-7.8,9.4,9.4,0,0,1,7.2-3.1,9.7,9.7,0,0,1,7.3,3Zm37.8,26.5q6.1,0,9.5-1.7a14,14,0,0,0,5.6-5.2,14.2,14.2,0,0,0,2.2-7.7,13.6,13.6,0,0,0-2.1-7.6,15.7,15.7,0,0,0-6.7-5.4,13.3,13.3,0,0,0,3.9-4.4,11.2,11.2,0,0,0,1.2-5.2,11.7,11.7,0,0,0-2.7-7.7,13.5,13.5,0,0,0-7.2-4.4,41,41,0,0,0-10.1-.9h-7.9V93.6h14.1Zm-2.1-41.2a7.4,7.4,0,0,1,4.9,1.4,4.7,4.7,0,0,1,1.6,3.7,5,5,0,0,1-1.7,4,7.8,7.8,0,0,1-5.2,1.5h-2.1V52.4h2.5Zm-.5,19.1q5.7,0,8.1,1.9a6.1,6.1,0,0,1,2.4,5.1,5.1,5.1,0,0,1-2.1,4.4q-2.1,1.5-8,1.5h-2.4V71.6h2Zm27.2,22h9.3V76.7q0-7.8,1.5-10.5t3.6-2.7a6.4,6.4,0,0,1,2.7.8l2.9-8a8.7,8.7,0,0,0-3.8-1,8.3,8.3,0,0,0-4.7,1.4,10,10,0,0,0-3.5,4.2V56.4h-8V93.6ZM412,42.8a5.7,5.7,0,0,0-1.7,4.2,6,6,0,0,0,1.8,4.4,5.7,5.7,0,0,0,4.2,1.8,5.6,5.6,0,0,0,4.2-1.8,5.8,5.8,0,0,0,1.7-4.3,6,6,0,0,0-10.1-4.4H412Zm-.5,50.8h9.3V56.4h-9.3V93.6Zm46.7-33.1a17.2,17.2,0,0,0-5.4-3.8,15.7,15.7,0,0,0-6.3-1.3,16.2,16.2,0,0,0-12.4,5.5q-5.1,5.5-5.1,14.1A19.5,19.5,0,0,0,434.3,89a16.6,16.6,0,0,0,12.5,5.6,15.3,15.3,0,0,0,6-1.1,18.3,18.3,0,0,0,5.5-3.7v3.9h9.3V42.1h-9.3V60.5Zm-2.5,6.6a10.9,10.9,0,0,1,2.9,7.9,11.2,11.2,0,0,1-2.9,8,9.6,9.6,0,0,1-7.3,3.1,9.4,9.4,0,0,1-7.2-3.1,11.1,11.1,0,0,1-2.9-7.9,11,11,0,0,1,2.9-7.8,9.4,9.4,0,0,1,7.2-3.1A9.7,9.7,0,0,1,455.7,67.1Zm50.1-6.6a19.2,19.2,0,0,0-5.7-3.9,15.7,15.7,0,0,0-6.1-1.2,16.3,16.3,0,0,0-11.8,4.9q-5.5,5.4-5.5,14.2a19,19,0,0,0,5.2,13.7,16.8,16.8,0,0,0,12.6,5.4,16.4,16.4,0,0,0,6.1-1.1,15.5,15.5,0,0,0,5.2-3.5q0,4.5-.9,6.4a7,7,0,0,1-3.2,3,13.4,13.4,0,0,1-6,1.2,14.6,14.6,0,0,1-5.1-.8,8.5,8.5,0,0,1-3.5-2.4H476.7a16,16,0,0,0,10.1,10.5,26.9,26.9,0,0,0,9.2,1.4q10.3,0,15.3-6,3.8-4.4,3.8-13.9V56.4h-9.3v4.1Zm-2.4,6.6a10.4,10.4,0,0,1,2.8,7.6,10.5,10.5,0,0,1-2.8,7.6,9.6,9.6,0,0,1-7.2,2.9,10,10,0,0,1-7.4-3,10.4,10.4,0,0,1-2.9-7.6,10.2,10.2,0,0,1,2.9-7.4,10.5,10.5,0,0,1,14.6-.1Zm59.8,8.9q0-9.2-5.5-14.9t-14.3-5.6a18.4,18.4,0,0,0-13.8,5.6,19.4,19.4,0,0,0-5.5,14.1A18.8,18.8,0,0,0,529.7,89q5.5,5.5,14.3,5.5a22,22,0,0,0,9.7-2,18.6,18.6,0,0,0,7-6.2l-7.9-3.7a12.4,12.4,0,0,1-9,3.7,10.9,10.9,0,0,1-7.2-2.3,10,10,0,0,1-3.5-6.3h30Zm-29.6-5.6a12.2,12.2,0,0,1,3.4-4.8,11.2,11.2,0,0,1,6.8-2.2,10.6,10.6,0,0,1,6.3,1.9,9.4,9.4,0,0,1,3.6,5.1H533.7Z"/></g><g id="Logo"><g id="B"><path id="B_Top" data-name="B Top" class="cls-2" d="M89.8,45.9,63.6,19.8,9.9,73.5,0,63.6,63.6,0l9.9,9.9L99.7,36Z"/><path id="B_Bottom" data-name="B Bottom" class="cls-3" d="M147.1,83.4,104.7,41h0L77.8,67.8,90.5,80.6l-9.9,9.9L58,67.8l46.7-46.6L157,73.5Z"/></g><g id="L"><path id="L-2" class="cls-4" d="M83.4,147l-9.9-9.9L0,63.6H19.8l63.6,63.6,43.8-43.8,9.9,9.9Z"/></g></g></g></svg>