<svg id="Layer_1" data-name="Layer 1" xmlns="http://www.w3.org/2000/svg" xmlns:xlink="http://www.w3.org/1999/xlink" viewBox="0 0 166.53 166.53"><defs><style>.cls-1{fill:url(#linear-gradient);}.cls-2{fill:none;stroke-miterlimit:10;stroke:url(#linear-gradient-2);}</style><linearGradient id="linear-gradient" x1="264.17" y1="232.89" x2="147.12" y2="115.84" gradientUnits="userSpaceOnUse"><stop offset="0.01" stop-color="#40499e"/><stop offset="1" stop-color="#2f64b0"/></linearGradient><linearGradient id="linear-gradient-2" x1="122.38" y1="174.37" x2="288.91" y2="174.37" gradientUnits="userSpaceOnUse"><stop offset="0" stop-color="#fff"/><stop offset="1"/></linearGradient></defs><title>logo-placeholder</title><path class="cls-1" d="M288.41,174.37c0,10.67-9.82,19.33-13.67,28.61-4,9.63-3.32,22.65-10.57,29.91s-20.28,6.58-29.91,10.57c-9.28,3.85-17.94,13.67-28.61,13.67s-19.34-9.82-28.62-13.67c-9.63-4-22.65-3.32-29.91-10.57s-6.58-20.28-10.57-29.91c-3.85-9.28-13.67-17.94-13.67-28.61s9.82-19.33,13.67-28.62c4-9.63,3.32-22.65,10.57-29.91s20.28-6.57,29.91-10.57c9.29-3.85,17.94-13.67,28.62-13.67s19.33,9.82,28.61,13.67c9.63,4,22.65,3.32,29.91,10.57s6.58,20.28,10.57,29.91C278.59,155,288.41,163.69,288.41,174.37Z" transform="translate(-122.38 -91.1)"/><path class="cls-2" d="M288.41,174.37c0,10.67-9.82,19.33-13.67,28.61-4,9.63-3.32,22.65-10.57,29.91s-20.28,6.58-29.91,10.57c-9.28,3.85-17.94,13.67-28.61,13.67s-19.34-9.82-28.62-13.67c-9.63-4-22.65-3.32-29.91-10.57s-6.58-20.28-10.57-29.91c-3.85-9.28-13.67-17.94-13.67-28.61s9.82-19.33,13.67-28.62c4-9.63,3.32-22.65,10.57-29.91s20.28-6.57,29.91-10.57c9.29-3.85,17.94-13.67,28.62-13.67s19.33,9.82,28.61,13.67c9.63,4,22.65,3.32,29.91,10.57s6.58,20.28,10.57,29.91C278.59,155,288.41,163.69,288.41,174.37Z" transform="translate(-122.38 -91.1)"/></svg>