<svg id="b2116cd0-2da1-48af-94b5-a822b49d01d7" xmlns="http://www.w3.org/2000/svg" viewBox="0 0 875.26 670"><defs><style>.cls-1{fill:#f2f2f2;}.cls-2{fill:#3f3d56;}.cls-3{fill:#eaebf7;}.cls-4{fill:#e75353;}.cls-11,.cls-5{fill:none;}.cls-6{fill:#373eb0;}.cls-7{fill:#ffb9b9;}.cls-8{fill:#2f2e41;}.cls-9{fill:#d0cde1;}.cls-10{opacity:0.1;isolation:isolate;}.cls-11{stroke:#3f3d56;stroke-miterlimit:10;stroke-width:2px;}</style></defs><title>analytics</title><rect class="cls-1" x="121.53" y="92" width="2" height="166.89"/><rect class="cls-1" x="188.53" y="92" width="2" height="166.89"/><path class="cls-2" d="M685.64,22.89"/><path class="cls-3" d="M865.38,334.55c24,138,9.38,273.76-101.11,320s-244.37-22-299-152.44,53.24-199.72,101.11-320C663.58-62.23,790.74-94.06,865.38,334.55Z"/><circle class="cls-4" cx="773.76" cy="560.97" r="6.54"/><line class="cls-5" x1="805.78" y1="669.44" x2="805.78" y2="595.03"/><rect class="cls-2" x="804.78" y="595.03" width="2" height="74.41"/><circle class="cls-2" cx="805.78" cy="595.03" r="10.52"/><path class="cls-2" d="M805.78,640.89s-1.5-32.33-32.32-28.57"/><rect class="cls-1" x="37" y="91" width="302" height="2"/><rect class="cls-1" x="37" y="184" width="302" height="2"/><rect class="cls-1" x="37" y="258" width="302" height="2"/><rect class="cls-2" x="57.5" y="348.5" width="269" height="2"/><path class="cls-2" d="M42,366a17,17,0,1,1,17-17,17,17,0,0,1-17,17Zm0-32a15,15,0,1,0,15,15,15,15,0,0,0-15-15Z"/><rect class="cls-2" x="121.56" y="259" width="2" height="90"/><rect class="cls-2" x="188.56" y="185" width="2" height="164"/><rect class="cls-2" x="256.56" y="92" width="2" height="257"/><circle class="cls-6" cx="122.5" cy="349.01" r="14.59"/><circle class="cls-6" cx="190" cy="349" r="14.59"/><circle class="cls-6" cx="257.47" cy="349" r="14.59"/><circle class="cls-6" cx="258" cy="92" r="14"/><circle class="cls-6" cx="257.64" cy="184.89" r="14"/><circle class="cls-6" cx="190" cy="185" r="14"/><circle class="cls-6" cx="189.64" cy="258.89" r="14"/><circle class="cls-6" cx="123" cy="259" r="14"/><circle class="cls-1" cx="13" cy="92" r="13"/><circle class="cls-1" cx="13" cy="184" r="13"/><circle class="cls-1" cx="13" cy="259" r="13"/><rect class="cls-2" x="13" width="70" height="6.55"/><rect class="cls-2" x="13" y="14.73" width="70" height="6.55"/><rect class="cls-2" x="13" y="29.45" width="70" height="6.55"/><path class="cls-7" d="M637.56,100s18.91,24.22,16.54,41.35,39-23.63,39-23.63S678.91,88.22,686.59,74,637.56,100,637.56,100Z"/><path class="cls-8" d="M703.73,590.34s24.81,27.18,20.67,33.08-76.79,28.36-85.06,27.18-12.41-7.09-9.46-8.86,21.86-11.82,21.86-11.82l16-18.31s11.82-6.5,11.82-10S703.73,590.34,703.73,590.34Z"/><path class="cls-7" d="M661.78,620.47s-9.45,15.36-11.22,15.95,8.86,21.86,8.86,21.86l24.81-7.68,13.59-11.23-3-15.36Z"/><path class="cls-9" d="M636.38,327.46,624.57,380s-40.76,91.56-12.41,107.51l62,118.74,33.08-14.77-55.5-121.65,25.4-140Z"/><path class="cls-10" d="M636.38,327.46,624.57,380s-40.76,91.56-12.41,107.51l62,118.74,33.08-14.77-55.5-121.65,25.4-140Z"/><path class="cls-9" d="M640.52,335.73h-6a334.86,334.86,0,0,0,3,54.35c4.14,30.13,14.77,99.25,14.77,99.25s-1.18,13,2.36,17.13,4.14-1.18,4.73,8.27,6.2,75.16,6.2,75.16,3.84,13.45-.29,16.4-12.41,18.91-6.5,21.27,46.67,5.31,48.44,3.54,0-112.83,0-112.83-1.18-22.45-2.36-23.63-6.5-17.13-4.73-20.67.59-14.18.59-16-5.31,0-.59-7.68,5.32-69.12,5.32-69.12,25.4-39,17.72-49Z"/><circle class="cls-7" cx="654.1" cy="69.9" r="38.99"/><path class="cls-8" d="M693.09,111.25s-23.63,5.91-33.08,20.09l-8.27,1.77v8.27s-15.36,49-11.81,70.3,0,62.62-5.91,73.84-7.68,13.59-4.73,18.31,7.09,20.68,4.14,27.77,0,14.18,27.17,15.95,65.57,1.77,65.57-7.68-2.36-36,0-43.12,3.55-11.82,2.37-18.32,2.36-79.16,2.36-79.16S731.49,126.61,693.09,111.25Z"/><path class="cls-7" d="M637.56,293.79l-32.49,48.44s-34.26,31.31-21.85,45.49,44.89-41.35,44.89-41.35l35.45-40.17Z"/><path class="cls-8" d="M658.24,639.37s-1.18-7.68-5.32-7.68S621,650.6,621,650.6,582.91,667,599,668s100.59,3.27,101.18.32,1.77-32.08-2.36-32-37.22,6.59-37.22,6.59Z"/><path class="cls-8" d="M656.88,49.76a9.86,9.86,0,0,1-4.46,1c-1.59.09-3.49,0-4.34-1.36a6.16,6.16,0,0,1-.54-2.84,9.35,9.35,0,0,0-10.51-8l-.42.07a13.57,13.57,0,0,0,1.74,5.54,11.85,11.85,0,0,1-10.42-1.38l-.6,8c-2.12,1-4.83,1.23-6.68-.22s-2-4.85.09-5.92c-2.58-.54-5.74-1.7-5.93-4.33-.17-2.4,2.38-4.16,2.85-6.52.38-1.92-.67-4,.07-5.83,1-2.39,4.55-3,5.26-5.48.36-1.26-.16-2.61,0-3.91.32-3.43,4.63-4.85,8.06-4.65s7.18,1.1,10.1-.72c1.41-.88,2.4-2.3,3.64-3.41a10.82,10.82,0,0,1,12.57-1.09,23.83,23.83,0,0,0,4.12,2.57c3.15,1.07,6.44-1,9.74-1.42a8.07,8.07,0,0,1,6.77,2,5.51,5.51,0,0,1,1,6.68c1.94-.32,4-.64,5.81.08s3.21,2.91,2.37,4.68a6,6,0,0,0-.74,1.5c-.17,1,.82,1.91,1.82,2.2s2.09.24,3.07.6c4,1.48,3.08,8,6.27,10.86A25.18,25.18,0,0,0,701,40.48a8.41,8.41,0,0,1,3,10.15c-.64,1.42-1.71,2.77-1.58,4.31.18,2.17,2.5,3.36,4.13,4.8a9.62,9.62,0,0,1,2.24,11.05c-1.5,3.13-4.74,5.5-5.07,9-.15,1.5.3,3,.28,4.5a9.29,9.29,0,0,1-4,7,20.58,20.58,0,0,1-7.67,3.19c-1.29.31-2.82.79-3.13,2.08-.37,1.53,1.33,2.91,1.15,4.47a2.61,2.61,0,0,1-1,1.69c-2.3,1.8-6,.26-7.36-2.31s-1.23-5.67-1-8.58l.8-10.61c.24-3.3.22-7.22-2.47-9.15-3-2.13-7.31-.41-10.67-1.85s-4.77-5.89-4.62-9.7,1.23-7.62.6-11.39c-.78-4.66-4.92-7.79-9.11-4.77C659.15,43.83,659.78,48.05,656.88,49.76Z"/><path class="cls-10" d="M689.55,139.61s-23.63,9.45-23.63,29.54,1.18,46.67-3,55.53-7.68,11.81-5.31,18.9,6.5,5.91,0,11.22-5.91-3.54-6.5,5.32,5.91,10,0,14.18-21.27,20.67-14.77,26,23.63,22.45,29.54,15.95,8.86-23,17.13-21.86,9.45,1.78,8.27-4.13-6.5-5.91.59-7.68,10,2.36,7.68-3.55-4.14-8.27.59-14.76,7.09-8.27,6.5-14.77,13-65,13-65S723.81,134.88,689.55,139.61Z"/><path class="cls-10" d="M683.05,138.43s-23.63,9.45-23.63,29.54,1.18,46.66-2.95,55.52-7.68,11.82-5.32,18.91,6.5,5.91,0,11.22-5.91-3.54-6.5,5.32,5.91,10,0,14.18-21.26,20.67-14.77,26,23.63,22.45,29.54,15.95,8.86-23,17.13-21.86,9.45,1.77,8.27-4.13-6.5-5.91.59-7.68,10,2.36,7.68-3.55-4.13-8.27.59-14.77,7.09-8.27,6.5-14.76,13-65,13-65S717.31,133.7,683.05,138.43Z"/><path class="cls-8" d="M686,136.66s-23.63,9.45-23.63,29.53,1.19,46.67-3,55.53-7.68,11.82-5.32,18.91,6.5,5.9,0,11.22-5.9-3.54-6.49,5.32,5.9,10,0,14.17-21.27,20.68-14.77,26,23.63,22.44,29.53,16,8.86-23,17.14-21.86,9.45,1.77,8.27-4.14-6.5-5.9.59-7.68,10,2.37,7.68-3.54-4.14-8.27.59-14.77,7.09-8.27,6.49-14.77,13-65,13-65S720.27,131.93,686,136.66Z"/><line class="cls-11" x1="816" y1="669" x2="276" y2="669"/><rect class="cls-2" x="297" y="478" width="70" height="6.55"/><rect class="cls-2" x="297" y="492.73" width="70" height="6.55"/><rect class="cls-2" x="297" y="507.45" width="70" height="6.55"/><path class="cls-8" d="M406.53,669.47a96.88,96.88,0,0,1-83.41-48l-.5-.87,83.16-48V476.53h1a96.47,96.47,0,0,1-.25,192.93Zm-81.17-48.12a94.47,94.47,0,1,0,82.42-142.8v95.28l-.5.29Z"/><circle class="cls-6" cx="406.53" cy="573" r="36.3"/><circle class="cls-8" cx="406.53" cy="573" r="18.1"/><rect class="cls-6" x="326.64" y="79.89" width="24" height="24"/><rect class="cls-6" x="326.64" y="171.89" width="24" height="24"/><rect class="cls-6" x="326.64" y="246.89" width="24" height="24"/><path class="cls-2" d="M351.64,361.89h-26v-26h26Zm-24-2h22v-22h-22Z"/></svg>