<svg id="b0ecae6e-6c91-4fdd-9561-7a349c2ce0c6" xmlns="http://www.w3.org/2000/svg" viewBox="0 0 1083 758.53"><defs><style>.cls-1{fill:#eaebf7;}.cls-2{fill:#3f3d56;}.cls-3{fill:#373eb0;}.cls-4{fill:none;stroke:#3f3d56;stroke-miterlimit:10;stroke-width:2px;}.cls-5{opacity:0.1;isolation:isolate;}.cls-6{fill:#2f2e41;}.cls-7{fill:#9f616a;}.cls-8{fill:#d0cde1;}.cls-9{fill:#fff;}</style></defs><title>mention</title><circle class="cls-1" cx="406.2" cy="389.43" r="350.3"/><path class="cls-2" d="M463.2,443.6C385.8,562.4,407,713.4,407,713.4s146.7-41.5,224.1-160.2,56.2-269.7,56.2-269.7S540.6,324.9,463.2,443.6Z" transform="translate(0 -0.07)"/><path class="cls-3" d="M406.6,712s-1.9-.3-5.4-1c-2.8-.6-6.6-1.4-11.2-2.5-41.6-9.8-152.1-43-224.4-130.1C75.2,469.3,79,316.9,79,316.9s138.3,22.5,229.5,120.4c4,4.2,7.8,8.6,11.5,13.1,78.7,94.9,86,222.7,86.6,254.2Z" transform="translate(0 -0.07)"/><path class="cls-4" d="M350.8,443.6C428.2,562.4,407,713.4,407,713.4S260.3,671.9,182.9,553.2s-56.2-269.7-56.2-269.7S273.4,324.9,350.8,443.6Z" transform="translate(0 -0.07)"/><path class="cls-5" d="M406.6,704.7c-2,2.5-3.9,4.6-5.3,6.3-3.3,3.8-5.2,5.7-5.2,5.7s-2.3-2.8-6.1-8.2c-20.9-29.1-88.2-132.8-83-252.5.3-6.3.7-12.5,1.4-18.6,4,4.2,7.8,8.6,11.5,13.1C398.6,545.4,406,673.1,406.6,704.7Z" transform="translate(0 -0.07)"/><path class="cls-3" d="M521.3,464.6c-6.1,141.6-111.2,252.1-111.2,252.1S314.9,597.6,321,456,432.2,203.9,432.2,203.9,527.5,323,521.3,464.6Z" transform="translate(0 -0.07)"/><line class="cls-4" x1="410.1" y1="712.63" x2="433.2" y2="209.63"/><ellipse class="cls-2" cx="541.5" cy="725.03" rx="541.5" ry="33.5"/><line class="cls-4" x1="89.9" y1="712.73" x2="89.9" y2="577.53"/><circle class="cls-2" cx="89.9" cy="577.53" r="19.1"/><path class="cls-2" d="M89.9,660.9S87.2,602.2,31.2,609" transform="translate(0 -0.07)"/><line class="cls-4" x1="555.5" y1="492.03" x2="555.5" y2="113.43"/><circle class="cls-2" cx="555.5" cy="113.43" r="26.3"/><path class="cls-2" d="M555.5,220.6s-3.8-80.8-80.8-71.4" transform="translate(0 -0.07)"/><path class="cls-6" d="M871.3,282.6l-22.8,43s-165,31.6-144,80.8,44.8,121.1,57.1,119.4,79.9-40.4,82.5-51.8-60.6-65-60.6-65L888,388.8s14.9,70.2-4.4,118.5S852.9,686.4,866,688.2s46.5,12.3,61.5,2.6,22-221.2,22-221.2,31.6-138.7,12.3-154.5S871.3,282.6,871.3,282.6Z" transform="translate(0 -0.07)"/><path class="cls-6" d="M907.2,666.9s-20.2-10.6-24.4-2.1c0,0,3.2,25.5-9.6,28.7s-18,25.5,0,27.6,29.7-4.3,36.1-4.3,0-22.3,0-22.3Z" transform="translate(0 -0.07)"/><path class="cls-6" d="M811,490.6s-22-6.1-24.3,3.1c0,0,8.5,24.2-3.3,30s-12.3,28.7,5.8,27,28.1-10.4,34.3-11.7-4.7-21.8-4.7-21.8Z" transform="translate(0 -0.07)"/><path class="cls-7" d="M920,131.2s.9,32.5-5.3,35.1S949,184.7,949,184.7l7-12.3s-7.9-43.9-6.2-47.4S920,131.2,920,131.2Z" transform="translate(0 -0.07)"/><circle class="cls-6" cx="934.7" cy="84.63" r="53.8"/><circle class="cls-6" cx="938.4" cy="34.23" r="22.3"/><path class="cls-6" d="M908.7,22.3A22.16,22.16,0,0,1,928.7.2a22.29,22.29,0,1,0-4.9,44.3,20.9,20.9,0,0,0,2.5.1h0a17.7,17.7,0,0,0,2.3-.1A22.32,22.32,0,0,1,908.7,22.3Z" transform="translate(0 -0.07)"/><circle class="cls-7" cx="933.2" cy="110.93" r="36.9"/><path class="cls-8" d="M959.1,158.8s-31.6,9.7-47.4,0-53.5,18.4-59.7,30.7,22.8,24.6,22.8,24.6-8.3,23.7-6.6,35.6c1.8,12.3-1.3,37.3-1.3,37.3s77.6,51.1,94.8,28.1c2.6-3.5,24.6-86,24.6-86l30.7-30.8s-19.3-28.1-30.7-30.7S959.1,158.8,959.1,158.8Z" transform="translate(0 -0.07)"/><path class="cls-7" d="M747.1,339.2s-59.7,30.7-47.4,39.5S762,344.5,762,344.5Z" transform="translate(0 -0.07)"/><path class="cls-7" d="M981.5,317.3s-26.6-17.9-30.8-9,29.1,29.2,36.1,21.3S981.5,317.3,981.5,317.3Z" transform="translate(0 -0.07)"/><path class="cls-8" d="M1001.2,188.7l15.8,9.7s53.5,73.7,35.1,90.4-65.8,50-65.8,50-15.8-22.8-10.5-23.7,47.4-36,47.4-36l-36.9-68.4Z" transform="translate(0 -0.07)"/><path class="cls-8" d="M862.5,185.2l-11.4,4.4-29.9,53.6-79,95.7s10.5,16.7,19.3,13.2,74.6-77.3,74.6-77.3l43-66.7Z" transform="translate(0 -0.07)"/><ellipse class="cls-6" cx="934.7" cy="67.13" rx="37.1" ry="22.3"/><rect class="cls-3" x="685" y="543.13" width="173" height="173"/><path class="cls-9" d="M835,622.5c0,24.5-11.5,40-29.6,40-9.3,0-16.4-5-17.6-12.3h-1.3c-3.3,7.7-10,11.9-19.1,11.9-16.1,0-26.9-12.9-26.9-32.2,0-18.5,10.8-31.3,26.7-31.3,8.1,0,15,4.1,18.1,10.8h1.3v-9.2h13.2V643c0,5.3,3,8.5,8.2,8.5,9.2,0,15-11.1,15-28.4,0-27.5-20.6-46-51.1-46-30.2,0-51.7,22-51.7,53.1,0,31.8,21.3,52.1,54.4,52.1a108.41,108.41,0,0,0,18-1.5,5.21,5.21,0,0,1,5.9,4.5,5.09,5.09,0,0,1-3.7,5.7,96.77,96.77,0,0,1-20.8,2.3c-40.3,0-66-24.9-66-63.5,0-37.7,26.3-63.5,64.6-63.5C809.5,566.2,835,589.2,835,622.5Zm-80.3,7.6c0,12.2,5.8,19.7,15.1,19.7,9.9,0,16.1-7.6,16.1-19.7s-6.2-19.5-15.9-19.5S754.7,617.9,754.7,630.1Z" transform="translate(0 -0.07)"/></svg>