<svg id="e8c09660-db65-4061-a2dc-920e909a0453" xmlns="http://www.w3.org/2000/svg" viewBox="0 0 1058 557"><defs><style>.cls-1{fill:#eaebf7;}.cls-2{fill:#3f3d56;}.cls-3{opacity:0.1;}.cls-10,.cls-3{isolation:isolate;}.cls-4{fill:#ffb8b8;}.cls-5{fill:#e75353;}.cls-6{fill:#2f2e41;}.cls-7{fill:#d0cde1;}.cls-8{fill:#f2f2f2;}.cls-10,.cls-9{fill:#373eb0;}.cls-10,.cls-11{opacity:0.3;}</style></defs><title>web-development</title><path class="cls-1" d="M929.1,248.6,829,296l88.6-66.3A499.24,499.24,0,0,0,869.2,166L435,274,827.2,124.4a500.84,500.84,0,0,0-57-43.4L108.6,187.5A496.64,496.64,0,0,0,0,497H996A496.1,496.1,0,0,0,929.1,248.6Z" transform="translate(0 0)"/><path class="cls-1" d="M716.1,50.2A496.28,496.28,0,0,0,498,0C344.2,0,206.6,69.8,115.3,179.3,271.7,145.1,544.1,85.7,716.1,50.2Z" transform="translate(0 0)"/><path class="cls-2" d="M996,495c0,15.5-143.7,62-321,62s-321-46.5-321-62,143.7,6,321,6S996,479.5,996,495Z" transform="translate(0 0)"/><path class="cls-3" d="M996,495c0,15.5-143.7,62-321,62s-321-46.5-321-62,143.7,6,321,6S996,479.5,996,495Z" transform="translate(0 0)"/><ellipse class="cls-2" cx="675" cy="495" rx="321" ry="28"/><path class="cls-4" d="M585.6,267.1s12.9,20.5,8.3,26,34.6,5.7,34.6,5.7-5.9-29.8-4.2-36.6Z" transform="translate(0 0)"/><path class="cls-3" d="M585.6,267.1s12.9,20.5,8.3,26,34.6,5.7,34.6,5.7-5.9-29.8-4.2-36.6Z" transform="translate(0 0)"/><circle class="cls-5" cx="606.3" cy="234.1" r="40.5"/><polygon class="cls-4" points="701.5 453.5 701.5 477.5 725.5 472.5 723.5 455.5 701.5 453.5"/><path class="cls-4" d="M786.5,457.5l67,11-17,25s-47-16-59-16S786.5,457.5,786.5,457.5Z" transform="translate(0 0)"/><path class="cls-6" d="M634.5,409.5s50-58,66-55,23,21,23,21l9,89s-32,3-32,0-6-67-6-67-47,104-72,35Z" transform="translate(0 0)"/><path class="cls-6" d="M553.5,448.5s1,50,31,53,63-20,63-20l54-25.9s64,33.9,83,24.9c0,0,20-21,7-27s-1,0-1,0l-77-40s-15-4-41,7-61,16-61,16Z" transform="translate(0 0)"/><circle class="cls-4" cx="603.5" cy="247.5" r="30"/><path class="cls-2" d="M646.5,331.5l-2,42s1,55-8,59c-4.5,2-13.7,6.1-22.1,10.5-6.3,3.3-12.3,6.8-15.6,9.9a11.58,11.58,0,0,0-2.3,2.6c-4,7-30,6-36,1s-2,6-7,8c-4.8,1.9-11.5-13.9-7.4-37.6.1-.8.3-1.6.4-2.4,4.6-23-2.6-77.9-1.5-99.2a39.06,39.06,0,0,1,.5-4.8c3-16,41.3-48.6,48.4-34.7,8.8,17.1,29.1,1.5,32.6-6.3,20-1,27,23,27,23Z" transform="translate(0 0)"/><path class="cls-6" d="M727.5,468.5s-16,6-21,5-10,3-10,9-6,20,3,21,46-1,54,2c0,0,36,1,33-14s-18-14-18-14S727.5,475.5,727.5,468.5Z" transform="translate(0 0)"/><path class="cls-6" d="M844.5,471.5s2-6,5-6,27,4,30,3,38-3,32,14-26,19-26,19-36-4-41-3-23,0-20-5S846.5,479.5,844.5,471.5Z" transform="translate(0 0)"/><path class="cls-7" d="M753.5,327.9l5.5,22.6a1.1,1.1,0,0,1,0,.8L734,429a1.38,1.38,0,0,1-1.8.9,1.55,1.55,0,0,1-1-1.2l-3.4-30.3a1.27,1.27,0,0,1,.1-.6l22.8-70.1a1.46,1.46,0,0,1,1.8-.9A1.57,1.57,0,0,1,753.5,327.9Z" transform="translate(0 0)"/><polygon class="cls-8" points="751.5 329.8 756.5 349.2 734.6 420.1 729.5 398.2 751.5 329.8"/><path class="cls-7" d="M640.9,435.3c.8,2.5,87.8-.8,88.6-1.7a22.68,22.68,0,0,0,1.9-3.4c.8-1.7,1.5-3.4,1.5-3.4l-3.4-27.3-86.1-3.1s-2.2,23.2-2.6,33.8A29,29,0,0,0,640.9,435.3Z" transform="translate(0 0)"/><polygon class="cls-3" points="718.5 403.2 720.2 426.9 682.2 426.9 682.2 403.2 718.5 403.2"/><polygon class="cls-3" points="669.6 410.8 669.8 410.8 668.7 420.9 647.6 420.9 647.6 410.8 669.6 410.8"/><path class="cls-3" d="M640.9,435.3c.8,2.5,87.8-.8,88.6-1.7a22.68,22.68,0,0,0,1.9-3.4H640.8A29,29,0,0,0,640.9,435.3Z" transform="translate(0 0)"/><path class="cls-5" d="M627.4,162a22.18,22.18,0,0,1-12.8,8.8c-8.9,2.4-.1,15.8-.1,15.8s-3.2-4.9,1.4-10S628.1,167.8,627.4,162Z" transform="translate(0 0)"/><circle class="cls-5" cx="613" cy="189.8" r="11.3"/><path class="cls-2" d="M627.4,199.3c-9.2-3.5-24.5-5.2-32.4-4l1.1-7.9c7.6,3.9,22.8,5.8,32.4,4Z" transform="translate(0 0)"/><path class="cls-5" d="M609.6,202.1s-11.5,19.2-38.3,26.4-.2,47.5-.2,47.5-9.7-14.6,4.3-30.2S611.7,219.6,609.6,202.1Z" transform="translate(0 0)"/><path class="cls-5" d="M610.5,200.9s11.1,26.3,23.2,28.8,11.2,44.1-7.8,50.3c0,0,13.9-24.4,2-40.8S608.6,210,610.5,200.9Z" transform="translate(0 0)"/><path class="cls-3" d="M614.4,443c-2.5,4.7-5.4,9.5-5.9,11.5-.3,1.3-4,.6-9.8-1.6-11.5-4.4-31.6-14.4-50.3-24.4a14.31,14.31,0,0,1-2.4-1.6c.1-.8.3-1.6.4-2.4,4.6-23-2.6-77.9-1.5-99.2l8.5-2.8,17,16v68s44,24,47,26C619,433.5,616.9,438.2,614.4,443Z" transform="translate(0 0)"/><path class="cls-4" d="M651.5,388.5l27,14s16-17,26-4-29,17-29,17-34-8-35-19S651.5,388.5,651.5,388.5Z" transform="translate(0 0)"/><path class="cls-4" d="M606.5,425.5l16,4s18-22,37-14-24,24-24,24-23,12-32,2S606.5,425.5,606.5,425.5Z" transform="translate(0 0)"/><path class="cls-2" d="M641.5,293.5c1,1,12,9,12,9s3,38-1,46-7,8-4,12,7,1,3,8-8,6-5,9,2,4,2,4l12,10s-7.4,11.7-16.7,10.9-17.3-45.9-17.3-45.9Z" transform="translate(0 0)"/><path class="cls-2" d="M553.5,317.5l-9,3s-24,88,4,103,59,30,60,26,12-20,9-22-47-26-47-26v-68Z" transform="translate(0 0)"/><polygon class="cls-3" points="567 354 565 402 618 427 569 402 567 354"/><path class="cls-2" d="M1013.1,461.6c-20.2,11.9-28.1,35.8-28.1,35.8s24.7,4.6,44.9-7.3,28.1-35.8,28.1-35.8S1033.2,449.8,1013.1,461.6Z" transform="translate(0 0)"/><path class="cls-9" d="M1020.2,469c-11.3,20.5-34.9,29.1-34.9,29.1s-5.3-24.6,5.9-45.1,34.9-29.1,34.9-29.1S1031.4,448.5,1020.2,469Z" transform="translate(0 0)"/><circle class="cls-9" cx="22" cy="228" r="4"/><circle class="cls-9" cx="33" cy="228" r="4"/><circle class="cls-9" cx="44" cy="228" r="4"/><rect class="cls-10" x="79" y="378.9" width="58" height="6"/><rect class="cls-10" x="79" y="391.9" width="54.9" height="6"/><rect class="cls-10" x="79" y="404.9" width="40" height="6"/><g class="cls-11"><rect class="cls-9" x="214" y="378.9" width="58" height="6"/><rect class="cls-9" x="214" y="391.9" width="54.9" height="6"/><rect class="cls-9" x="214" y="404.9" width="40" height="6"/><rect class="cls-10" x="214" y="378.9" width="58" height="6"/><rect class="cls-10" x="214" y="391.9" width="54.9" height="6"/><rect class="cls-10" x="214" y="404.9" width="40" height="6"/></g><rect class="cls-10" x="354" y="378.9" width="58" height="6"/><rect class="cls-10" x="354" y="391.9" width="54.9" height="6"/><rect class="cls-10" x="354" y="404.9" width="40" height="6"/><rect class="cls-10" x="71" y="300.9" width="74" height="66"/><rect class="cls-2" x="206" y="300.9" width="74" height="66"/><rect class="cls-2" x="346" y="300.9" width="74" height="66"/><path class="cls-9" d="M233.4,366.6h-1c0-1.1.6-26.6,10.7-33.6l.6.8C234,340.5,233.4,366.3,233.4,366.6Z" transform="translate(0 0)"/><circle class="cls-9" cx="248.2" cy="327.8" r="4.9"/><path class="cls-9" d="M247.2,345a14.74,14.74,0,0,1-7.8.3,13.83,13.83,0,0,1,14.2-4.9A14.64,14.64,0,0,1,247.2,345Z" transform="translate(0 0)"/><path class="cls-9" d="M373.4,366.6h-1c0-1.1.6-26.6,10.7-33.6l.6.8C374,340.5,373.4,366.3,373.4,366.6Z" transform="translate(0 0)"/><circle class="cls-9" cx="388.2" cy="327.8" r="4.9"/><path class="cls-9" d="M387.2,345a14.74,14.74,0,0,1-7.8.3,13.83,13.83,0,0,1,14.2-4.9A14.64,14.64,0,0,1,387.2,345Z" transform="translate(0 0)"/><path class="cls-6" d="M485,494H6V217H485ZM8,492H483V219H8Z" transform="translate(0 0)"/><rect class="cls-6" x="7" y="237.1" width="477" height="2"/></svg>